<?xml version="1.0" encoding="UTF-8"?>
<!--Generator: Apple Native CoreSVG 175.5-->
<!DOCTYPE svg
PUBLIC "-//W3C//DTD SVG 1.1//EN"
       "http://www.w3.org/Graphics/SVG/1.1/DTD/svg11.dtd">
<svg version="1.1" xmlns="http://www.w3.org/2000/svg" xmlns:xlink="http://www.w3.org/1999/xlink" width="3300" height="2200">
 <!--glyph: "uni10039F.medium", point size: 100.0, font version: "18.0d12e2", template writer version: "101"-->
 <g id="Notes">
  <rect height="2200" id="artboard" style="fill:white;opacity:1" width="3300" x="0" y="0"/>
  <line style="fill:none;stroke:black;opacity:1;stroke-width:0.5;" x1="263" x2="3036" y1="292" y2="292"/>
  <text style="stroke:none;fill:black;font-family:sans-serif;font-size:13;font-weight:bold;" transform="matrix(1 0 0 1 263 322)">Weight/Scale Variations</text>
  <text style="stroke:none;fill:black;font-family:sans-serif;font-size:13;text-anchor:middle;" transform="matrix(1 0 0 1 559.711 322)">Ultralight</text>
  <text style="stroke:none;fill:black;font-family:sans-serif;font-size:13;text-anchor:middle;" transform="matrix(1 0 0 1 856.422 322)">Thin</text>
  <text style="stroke:none;fill:black;font-family:sans-serif;font-size:13;text-anchor:middle;" transform="matrix(1 0 0 1 1153.13 322)">Light</text>
  <text style="stroke:none;fill:black;font-family:sans-serif;font-size:13;text-anchor:middle;" transform="matrix(1 0 0 1 1449.84 322)">Regular</text>
  <text style="stroke:none;fill:black;font-family:sans-serif;font-size:13;text-anchor:middle;" transform="matrix(1 0 0 1 1746.56 322)">Medium</text>
  <text style="stroke:none;fill:black;font-family:sans-serif;font-size:13;text-anchor:middle;" transform="matrix(1 0 0 1 2043.27 322)">Semibold</text>
  <text style="stroke:none;fill:black;font-family:sans-serif;font-size:13;text-anchor:middle;" transform="matrix(1 0 0 1 2339.98 322)">Bold</text>
  <text style="stroke:none;fill:black;font-family:sans-serif;font-size:13;text-anchor:middle;" transform="matrix(1 0 0 1 2636.69 322)">Heavy</text>
  <text style="stroke:none;fill:black;font-family:sans-serif;font-size:13;text-anchor:middle;" transform="matrix(1 0 0 1 2933.4 322)">Black</text>
  <line style="fill:none;stroke:black;opacity:1;stroke-width:0.5;" x1="263" x2="3036" y1="1903" y2="1903"/>
  <g transform="matrix(1 0 0 1 263 1933)">
   <path d="M9.24805 0.830078C13.5547 0.830078 17.1387-2.74414 17.1387-7.05078C17.1387-11.3574 13.5449-14.9316 9.23828-14.9316C4.94141-14.9316 1.36719-11.3574 1.36719-7.05078C1.36719-2.74414 4.95117 0.830078 9.24805 0.830078ZM9.24805-0.654297C5.70312-0.654297 2.87109-3.49609 2.87109-7.05078C2.87109-10.6055 5.69336-13.4473 9.23828-13.4473C12.793-13.4473 15.6445-10.6055 15.6445-7.05078C15.6445-3.49609 12.8027-0.654297 9.24805-0.654297ZM5.6543-7.05078C5.6543-6.62109 5.95703-6.32812 6.40625-6.32812L8.50586-6.32812L8.50586-4.20898C8.50586-3.76953 8.79883-3.4668 9.22852-3.4668C9.67773-3.4668 9.9707-3.76953 9.9707-4.20898L9.9707-6.32812L12.0898-6.32812C12.5293-6.32812 12.832-6.62109 12.832-7.05078C12.832-7.49023 12.5293-7.79297 12.0898-7.79297L9.9707-7.79297L9.9707-9.90234C9.9707-10.3516 9.67773-10.6543 9.22852-10.6543C8.79883-10.6543 8.50586-10.3516 8.50586-9.90234L8.50586-7.79297L6.40625-7.79297C5.95703-7.79297 5.6543-7.49023 5.6543-7.05078Z"/>
  </g>
  <g transform="matrix(1 0 0 1 281.867 1933)">
   <path d="M11.709 2.91016C17.1582 2.91016 21.6699-1.61133 21.6699-7.05078C21.6699-12.5 17.1484-17.0117 11.6992-17.0117C6.25977-17.0117 1.74805-12.5 1.74805-7.05078C1.74805-1.61133 6.26953 2.91016 11.709 2.91016ZM11.709 1.25C7.09961 1.25 3.41797-2.44141 3.41797-7.05078C3.41797-11.6602 7.08984-15.3516 11.6992-15.3516C16.3086-15.3516 20.0098-11.6602 20.0098-7.05078C20.0098-2.44141 16.3184 1.25 11.709 1.25ZM7.17773-7.05078C7.17773-6.57227 7.50977-6.25 8.00781-6.25L10.8789-6.25L10.8789-3.36914C10.8789-2.88086 11.2109-2.53906 11.6895-2.53906C12.1777-2.53906 12.5195-2.87109 12.5195-3.36914L12.5195-6.25L15.4004-6.25C15.8887-6.25 16.2305-6.57227 16.2305-7.05078C16.2305-7.53906 15.8887-7.88086 15.4004-7.88086L12.5195-7.88086L12.5195-10.752C12.5195-11.25 12.1777-11.5918 11.6895-11.5918C11.2109-11.5918 10.8789-11.25 10.8789-10.752L10.8789-7.88086L8.00781-7.88086C7.50977-7.88086 7.17773-7.53906 7.17773-7.05078Z"/>
  </g>
  <g transform="matrix(1 0 0 1 305.646 1933)">
   <path d="M14.9707 5.66406C21.9336 5.66406 27.6953-0.0976562 27.6953-7.05078C27.6953-14.0137 21.9238-19.7754 14.9609-19.7754C8.00781-19.7754 2.25586-14.0137 2.25586-7.05078C2.25586-0.0976562 8.01758 5.66406 14.9707 5.66406ZM14.9707 3.84766C8.93555 3.84766 4.08203-1.01562 4.08203-7.05078C4.08203-13.0957 8.92578-17.9492 14.9609-17.9492C21.0059-17.9492 25.8691-13.0957 25.8691-7.05078C25.8691-1.01562 21.0156 3.84766 14.9707 3.84766ZM9.19922-7.05078C9.19922-6.5332 9.57031-6.17188 10.1172-6.17188L14.0625-6.17188L14.0625-2.2168C14.0625-1.67969 14.4336-1.29883 14.9512-1.29883C15.4883-1.29883 15.8594-1.66992 15.8594-2.2168L15.8594-6.17188L19.8145-6.17188C20.3516-6.17188 20.7324-6.5332 20.7324-7.05078C20.7324-7.59766 20.3613-7.96875 19.8145-7.96875L15.8594-7.96875L15.8594-11.9141C15.8594-12.4609 15.4883-12.8418 14.9512-12.8418C14.4336-12.8418 14.0625-12.4609 14.0625-11.9141L14.0625-7.96875L10.1172-7.96875C9.57031-7.96875 9.19922-7.59766 9.19922-7.05078Z"/>
  </g>
  <text style="stroke:none;fill:black;font-family:sans-serif;font-size:13;font-weight:bold;" transform="matrix(1 0 0 1 263 1953)">Design Variations</text>
  <text style="stroke:none;fill:black;font-family:sans-serif;font-size:13;" transform="matrix(1 0 0 1 263 1971)">Symbols are supported in up to nine weights and three scales.</text>
  <text style="stroke:none;fill:black;font-family:sans-serif;font-size:13;" transform="matrix(1 0 0 1 263 1989)">For optimal layout with text and other symbols, vertically align</text>
  <text style="stroke:none;fill:black;font-family:sans-serif;font-size:13;" transform="matrix(1 0 0 1 263 2007)">symbols with the adjacent text.</text>
  <line style="fill:none;stroke:#00AEEF;stroke-width:0.5;opacity:1.0;" x1="776" x2="776" y1="1919" y2="1933"/>
  <g transform="matrix(1 0 0 1 776 1933)">
   <path d="M3.31055 0.15625C3.82812 0.15625 4.08203-0.0390625 4.26758-0.585938L5.52734-4.0332L11.2891-4.0332L12.5488-0.585938C12.7344-0.0390625 12.9883 0.15625 13.4961 0.15625C14.0137 0.15625 14.3457-0.15625 14.3457-0.644531C14.3457-0.810547 14.3164-0.966797 14.2383-1.17188L9.6582-13.3691C9.43359-13.9648 9.0332-14.2676 8.4082-14.2676C7.80273-14.2676 7.39258-13.9746 7.17773-13.3789L2.59766-1.16211C2.51953-0.957031 2.49023-0.800781 2.49023-0.634766C2.49023-0.146484 2.80273 0.15625 3.31055 0.15625ZM6.00586-5.51758L8.37891-12.0898L8.42773-12.0898L10.8008-5.51758Z"/>
  </g>
  <line style="fill:none;stroke:#00AEEF;stroke-width:0.5;opacity:1.0;" x1="793.197" x2="793.197" y1="1919" y2="1933"/>
  <text style="stroke:none;fill:black;font-family:sans-serif;font-size:13;font-weight:bold;" transform="matrix(1 0 0 1 776 1953)">Margins</text>
  <text style="stroke:none;fill:black;font-family:sans-serif;font-size:13;" transform="matrix(1 0 0 1 776 1971)">Leading and trailing margins on the left and right side of each symbol</text>
  <text style="stroke:none;fill:black;font-family:sans-serif;font-size:13;" transform="matrix(1 0 0 1 776 1989)">can be adjusted by modifying the x-location of the margin guidelines.</text>
  <text style="stroke:none;fill:black;font-family:sans-serif;font-size:13;" transform="matrix(1 0 0 1 776 2007)">Modifications are automatically applied proportionally to all</text>
  <text style="stroke:none;fill:black;font-family:sans-serif;font-size:13;" transform="matrix(1 0 0 1 776 2025)">scales and weights.</text>
  <g transform="matrix(1 0 0 1 1289 1933)">
   <path d="M2.8418 1.86523L4.54102 3.57422C5.40039 4.44336 6.38672 4.38477 7.31445 3.35938L18.0078-8.42773L17.041-9.4043L6.42578 2.27539C6.07422 2.67578 5.74219 2.77344 5.27344 2.30469L4.10156 1.14258C3.63281 0.683594 3.74023 0.341797 4.14062-0.0195312L15.6152-10.8203L14.6387-11.7871L3.04688-0.898438C2.06055 0.0195312 1.98242 0.996094 2.8418 1.86523ZM9.25781-16.3281C8.83789-15.918 8.80859-15.3418 9.04297-14.9512C9.27734-14.5898 9.73633-14.3555 10.3809-14.5215C11.8457-14.8633 13.3691-14.9219 14.7949-13.9844L14.209-12.5293C13.8672-11.6992 14.043-11.1133 14.5801-10.5664L16.875-8.25195C17.3633-7.76367 17.7734-7.74414 18.3398-7.8418L19.4043-8.03711L20.0684-7.36328L20.0293-6.80664C19.9902-6.30859 20.1172-5.92773 20.6055-5.44922L21.3672-4.70703C21.8457-4.22852 22.4609-4.19922 22.9297-4.66797L25.8398-7.58789C26.3086-8.05664 26.2891-8.65234 25.8105-9.13086L25.0391-9.89258C24.5605-10.3711 24.1895-10.5273 23.7109-10.4883L23.1348-10.4395L22.4902-11.0742L22.7344-12.1973C22.8613-12.7637 22.7051-13.2031 22.1191-13.7891L19.9219-15.9766C16.582-19.2969 12.1484-19.2188 9.25781-16.3281ZM10.752-15.957C13.1836-17.7344 16.4746-17.4316 18.7012-15.2051L21.1328-12.793C21.3672-12.5586 21.4062-12.373 21.3379-12.0312L21.0156-10.5469L22.5195-9.0625L23.5059-9.12109C23.7598-9.13086 23.8379-9.11133 24.0332-8.91602L24.6094-8.33984L22.168-5.89844L21.5918-6.47461C21.3965-6.66992 21.3672-6.74805 21.377-7.01172L21.4453-7.98828L19.9512-9.47266L18.4277-9.21875C18.1055-9.15039 17.959-9.17969 17.7148-9.41406L15.7129-11.416C15.459-11.6504 15.4297-11.8164 15.5859-12.1875L16.4648-14.2773C14.9023-15.7324 12.8711-16.3574 10.8398-15.7617C10.6836-15.7227 10.625-15.8496 10.752-15.957Z"/>
  </g>
  <text style="stroke:none;fill:black;font-family:sans-serif;font-size:13;font-weight:bold;" transform="matrix(1 0 0 1 1289 1953)">Exporting</text>
  <text style="stroke:none;fill:black;font-family:sans-serif;font-size:13;" transform="matrix(1 0 0 1 1289 1971)">Symbols should be outlined when exporting to ensure the</text>
  <text style="stroke:none;fill:black;font-family:sans-serif;font-size:13;" transform="matrix(1 0 0 1 1289 1989)">design is preserved when submitting to Xcode.</text>
  <text id="template-version" style="stroke:none;fill:black;font-family:sans-serif;font-size:13;text-anchor:end;" transform="matrix(1 0 0 1 3036 1933)">Template v.4.0</text>
  <text style="stroke:none;fill:black;font-family:sans-serif;font-size:13;text-anchor:end;" transform="matrix(1 0 0 1 3036 1951)">Requires Xcode 14 or greater</text>
  <text id="descriptive-name" style="stroke:none;fill:black;font-family:sans-serif;font-size:13;text-anchor:end;" transform="matrix(1 0 0 1 3036 1969)">Generated from house.fill</text>
  <text style="stroke:none;fill:black;font-family:sans-serif;font-size:13;text-anchor:end;" transform="matrix(1 0 0 1 3036 1987)">Typeset at 100 points</text>
  <text style="stroke:none;fill:black;font-family:sans-serif;font-size:13;" transform="matrix(1 0 0 1 263 726)">Small</text>
  <text style="stroke:none;fill:black;font-family:sans-serif;font-size:13;" transform="matrix(1 0 0 1 263 1156)">Medium</text>
  <text style="stroke:none;fill:black;font-family:sans-serif;font-size:13;" transform="matrix(1 0 0 1 263 1586)">Large</text>
 </g>
 <g id="Guides">
  <g id="H-reference" style="fill:#27AAE1;stroke:none;" transform="matrix(1 0 0 1 339 696)">
   <path d="M0.993654 0L3.63775 0L29.3281-67.1323L30.0303-67.1323L30.0303-70.459L28.1226-70.459ZM11.6885-24.4799L46.9815-24.4799L46.2315-26.7285L12.4385-26.7285ZM55.1196 0L57.7637 0L30.6382-70.459L29.4326-70.459L29.4326-67.1323Z"/>
  </g>
  <line id="Baseline-S" style="fill:none;stroke:#27AAE1;opacity:1;stroke-width:0.5;" x1="263" x2="3036" y1="696" y2="696"/>
  <line id="Capline-S" style="fill:none;stroke:#27AAE1;opacity:1;stroke-width:0.5;" x1="263" x2="3036" y1="625.541" y2="625.541"/>
  <g id="H-reference" style="fill:#27AAE1;stroke:none;" transform="matrix(1 0 0 1 339 1126)">
   <path d="M0.993654 0L3.63775 0L29.3281-67.1323L30.0303-67.1323L30.0303-70.459L28.1226-70.459ZM11.6885-24.4799L46.9815-24.4799L46.2315-26.7285L12.4385-26.7285ZM55.1196 0L57.7637 0L30.6382-70.459L29.4326-70.459L29.4326-67.1323Z"/>
  </g>
  <line id="Baseline-M" style="fill:none;stroke:#27AAE1;opacity:1;stroke-width:0.5;" x1="263" x2="3036" y1="1126" y2="1126"/>
  <line id="Capline-M" style="fill:none;stroke:#27AAE1;opacity:1;stroke-width:0.5;" x1="263" x2="3036" y1="1055.54" y2="1055.54"/>
  <g id="H-reference" style="fill:#27AAE1;stroke:none;" transform="matrix(1 0 0 1 339 1556)">
   <path d="M0.993654 0L3.63775 0L29.3281-67.1323L30.0303-67.1323L30.0303-70.459L28.1226-70.459ZM11.6885-24.4799L46.9815-24.4799L46.2315-26.7285L12.4385-26.7285ZM55.1196 0L57.7637 0L30.6382-70.459L29.4326-70.459L29.4326-67.1323Z"/>
  </g>
  <line id="Baseline-L" style="fill:none;stroke:#27AAE1;opacity:1;stroke-width:0.5;" x1="263" x2="3036" y1="1556" y2="1556"/>
  <line id="Capline-L" style="fill:none;stroke:#27AAE1;opacity:1;stroke-width:0.5;" x1="263" x2="3036" y1="1485.54" y2="1485.54"/>
  <line id="left-margin-Regular-M" style="fill:none;stroke:#00AEEF;stroke-width:0.5;opacity:1.0;" x1="1379.13" x2="1379.13" y1="1030.79" y2="1150.12"/>
  <line id="right-margin-Regular-M" style="fill:none;stroke:#00AEEF;stroke-width:0.5;opacity:1.0;" x1="1520.56" x2="1520.56" y1="1030.79" y2="1150.12"/>
 </g>
 <g id="Symbols">
  <g id="Black-L" transform="matrix(1 0 0 1 2834.53 1556)">
   <path d="M116.302 10.9283L81.4155 10.9283L81.4155-27.3523C81.4155-30.4731 83.4956-32.4532 86.5944-32.4532L111.202-32.4532C114.322-32.4532 116.302-30.4731 116.302-27.3523ZM39.0008 14.3105C39.0008 24.3745 46.0445 30.9093 56.9095 30.9093L140.796 30.9093C151.661 30.9093 158.705 24.3745 158.705 14.3105L158.705-27.0471L103.112-73.7169C100.499-75.9682 97.2985-75.9461 94.7076-73.7169L39.0008-27.0495ZM16.084-43.6706C16.084-38.1003 20.0264-34.2082 26.0826-34.2082C28.7128-34.2082 31.4898-35.4365 33.7979-37.3889L94.733-88.4867C97.4507-90.7879 100.406-90.7719 103.148-88.4867L163.961-37.3889C166.29-35.4365 169.067-34.2082 171.697-34.2082C177.609-34.2082 181.654-37.9129 181.654-43.6082C181.654-46.5745 180.199-49.5835 177.633-51.7343L112.042-106.842C104.161-113.458 93.7431-113.458 85.8594-106.842L20.126-51.6759C17.5599-49.4666 16.084-46.4912 16.084-43.6706ZM134.922-81.5024L159.639-60.9005L159.639-95.7709C159.639-98.8589 157.644-100.832 154.577-100.832L140.083-100.832C136.996-100.832 134.922-98.8589 134.922-95.7709Z"/>
  </g>
  <g id="Heavy-L" transform="matrix(1 0 0 1 2539.78 1556)">
   <path d="M114.036 12.1302L79.7476 12.1302L79.7476-27.0024C79.7476-30.0658 81.788-32.0012 84.8156-32.0012L109.043-32.0012C112.101-32.0012 114.036-30.0658 114.036-27.0024ZM38.1271 13.7488C38.1271 23.451 44.724 29.6306 55.0666 29.6306L138.755 29.6306C149.098 29.6306 155.695 23.451 155.695 13.7488L155.695-29.9013L101.059-75.7504C98.4895-77.973 95.3747-77.9372 92.8405-75.7504L38.1271-29.9125ZM16.084-43.889C16.084-39.0626 19.5477-35.5517 24.926-35.5517C27.3207-35.5517 29.7564-36.6994 31.8003-38.4241L93.2161-89.9469C95.6432-91.9989 98.2948-91.9912 100.74-89.9469L162.044-38.4241C164.118-36.6994 166.554-35.5517 168.948-35.5517C174.121-35.5517 177.73-38.791 177.73-43.7985C177.73-46.4879 176.49-49.0673 174.221-50.9672L108.733-106.002C101.634-111.968 92.3636-111.968 85.253-106.002L19.6236-50.9226C17.3542-48.978 16.084-46.3672 16.084-43.889ZM133.933-79.2713L156.409-60.5049L156.409-94.0167C156.409-96.9938 154.471-98.8955 151.524-98.8955L138.917-98.8955C135.945-98.8955 133.933-96.9938 133.933-94.0167Z"/>
  </g>
  <g id="Bold-L" transform="matrix(1 0 0 1 2245.57 1556)">
   <path d="M111.164 13.7102L77.6061 13.7102L77.6061-26.4826C77.6061-29.447 79.578-31.3137 82.4911-31.3137L106.347-31.3137C109.298-31.3137 111.164-29.447 111.164-26.4826ZM36.9542 13.2062C36.9542 22.4179 42.9979 28.152 52.6653 28.152L136.205 28.152C145.872 28.152 151.916 22.4179 151.916 13.2062L151.916-33.4955L98.4714-78.3303C95.9254-80.537 92.9256-80.4857 90.4308-78.3303L36.9542-33.522ZM16.084-44.1655C16.084-40.2462 18.956-37.2339 23.4744-37.2339C25.5547-37.2339 27.5603-38.2594 29.2739-39.6998L91.1846-91.6633C93.3027-93.4526 95.6225-93.4675 97.7733-91.6633L159.573-39.6998C161.324-38.2594 163.33-37.2339 165.41-37.2339C169.676-37.2339 172.725-39.9044 172.725-44.0515C172.725-46.3803 171.739-48.4444 169.83-50.0368L104.63-104.852C98.4616-110.049 90.5608-110.049 84.3659-104.852L19.0161-50.0076C17.108-48.386 16.084-46.2284 16.084-44.1655ZM132.703-76.4009L152.383-59.9312L152.383-91.9018C152.383-94.6959 150.545-96.4832 147.789-96.4832L137.39-96.4832C134.609-96.4832 132.703-94.6959 132.703-91.9018Z"/>
  </g>
  <g id="Semibold-L" transform="matrix(1 0 0 1 1950.59 1556)">
   <path d="M109.185 14.7995L76.1298 14.7995L76.1298-26.1242C76.1298-29.0204 78.0544-30.8396 80.8886-30.8396L104.488-30.8396C107.365-30.8396 109.185-29.0204 109.185-26.1242ZM36.1457 12.8321C36.1457 21.7057 41.8079 27.1326 51.0098 27.1326L134.447 27.1326C143.649 27.1326 149.311 21.7057 149.311 12.8321L149.311-35.9734L96.6872-80.1088C94.1577-82.3045 91.2372-82.2427 88.7695-80.1088L36.1457-36.0103ZM16.084-44.3561C16.084-41.0622 18.5481-38.3936 22.4736-38.3936C24.3373-38.3936 26.0463-39.3349 27.5322-40.5793L89.784-92.8466C91.6893-94.4548 93.7803-94.4853 95.7282-92.8466L157.869-40.5793C159.398-39.3349 161.107-38.3936 162.971-38.3936C166.611-38.3936 169.274-40.6719 169.274-44.226C169.274-46.3062 168.463-48.015 166.804-49.3955L101.801-104.06C96.2747-108.726 89.3179-108.726 83.7544-104.06L18.5973-49.3769C16.9383-47.9778 16.084-46.1327 16.084-44.3561ZM131.856-74.422L149.608-59.5357L149.608-90.4438C149.608-93.1117 147.838-94.8201 145.213-94.8201L136.338-94.8201C133.688-94.8201 131.856-93.1117 131.856-90.4438Z"/>
  </g>
  <g id="Medium-L" transform="matrix(1 0 0 1 1655.18 1556)">
   <path d="M107.684 15.6254L75.0104 15.6254L75.0104-25.8525C75.0104-28.6969 76.8991-30.4802 79.6736-30.4802L103.078-30.4802C105.9-30.4802 107.684-28.6969 107.684-25.8525ZM35.5326 12.5484C35.5326 21.1657 40.9057 26.3597 49.7545 26.3597L133.114 26.3597C141.962 26.3597 147.336 21.1657 147.336 12.5484L147.336-37.8522L95.3343-81.4574C92.8173-83.6448 89.957-83.5749 87.5099-81.4574L35.5326-37.8971ZM16.084-44.5006C16.084-41.6809 18.2388-39.2729 21.7148-39.2729C23.4141-39.2729 24.8983-40.1503 26.2116-41.2462L88.7221-93.7438C90.4658-95.2147 92.3834-95.2571 94.1776-93.7438L156.577-41.2462C157.938-40.1503 159.422-39.2729 161.121-39.2729C164.288-39.2729 166.657-41.2539 166.657-44.3582C166.657-46.2499 165.979-47.6893 164.509-48.9091L99.6565-103.459C94.6165-107.723 88.3755-107.723 83.2906-103.459L18.2798-48.8986C16.8097-47.6683 16.084-46.0602 16.084-44.5006ZM131.213-72.9215L147.504-59.2359L147.504-89.3383C147.504-91.9106 145.785-93.5591 143.26-93.5591L135.54-93.5591C132.99-93.5591 131.213-91.9106 131.213-89.3383Z"/>
  </g>
  <g id="Regular-L" transform="matrix(1 0 0 1 1360.18 1556)">
   <path d="M105.726 16.7028L73.5503 16.7028L73.5503-25.4981C73.5503-28.2749 75.3923-30.0114 78.0887-30.0114L101.24-30.0114C103.989-30.0114 105.726-28.2749 105.726-25.4981ZM34.733 12.1784C34.733 20.4613 39.7288 25.3516 48.1172 25.3516L131.375 25.3516C139.763 25.3516 144.759 20.4613 144.759 12.1784L144.759-40.3028L93.5697-83.2165C91.0691-85.3929 88.2871-85.3125 85.8669-83.2165L34.733-40.3581ZM16.084-44.689C16.084-42.4879 17.8354-40.4199 20.725-40.4199C22.21-40.4199 23.401-41.2139 24.489-42.116L87.337-94.914C88.8701-96.2058 90.5615-96.2637 92.1549-94.914L154.892-42.116C156.033-41.2139 157.224-40.4199 158.709-40.4199C161.257-40.4199 163.245-42.013 163.245-44.5307C163.245-46.1766 162.74-47.2646 161.516-48.2748L96.8589-102.676C92.4537-106.415 87.1464-106.415 82.6858-102.676L17.8656-48.2748C16.6418-47.2646 16.084-45.9656 16.084-44.689ZM130.375-70.9644L144.759-58.8447L144.759-87.8963C144.759-90.3438 143.108-91.9144 140.713-91.9144L134.499-91.9144C132.079-91.9144 130.375-90.3438 130.375-87.8963Z"/>
  </g>
  <g id="Light-L" transform="matrix(1 0 0 1 1065.66 1556)">
   <path d="M103.321 18.3823L71.5845 18.3823L71.5845-24.582C71.5845-27.1107 73.2547-28.7136 75.7031-28.7136L99.2359-28.7136C101.718-28.7136 103.321-27.1107 103.321-24.582ZM33.3397 12.7892C33.3397 20.4613 37.9539 25.0081 45.6934 25.0081L129.466 25.0081C137.206 25.0081 141.82 20.4613 141.82 12.7892L141.82-43.1656L91.4895-85.3922C88.817-87.6831 86.1687-87.6027 83.5767-85.3922L33.3397-43.2591ZM16.084-44.9181C16.084-43.2513 17.4346-41.6986 19.599-41.6986C20.7214-41.6986 21.5688-42.2636 22.4087-42.9557L84.9513-95.5057C86.5989-96.912 88.3476-97.0653 90.2082-95.5057L152.564-42.9557C153.437-42.2636 154.285-41.6986 155.407-41.6986C157.383-41.6986 158.855-42.9482 158.855-44.817C158.855-46.1003 158.445-46.9402 157.432-47.7595L93.9961-101.187C89.9917-104.621 85.2951-104.621 81.1971-101.187L17.5411-47.7595C16.5273-46.9402 16.084-45.9656 16.084-44.9181ZM129.497-68.2924L141.82-57.9095L141.82-86.8084C141.82-88.8361 140.417-90.1585 138.423-90.1585L132.915-90.1585C130.934-90.1585 129.497-88.8361 129.497-86.8084Z"/>
  </g>
  <g id="Thin-L" transform="matrix(1 0 0 1 771.856 1556)">
   <path d="M100.14 20.6035L68.9846 20.6035L68.9846-23.3704C68.9846-25.571 70.4277-26.9972 72.5478-26.9972L96.5855-26.9972C98.7141-26.9972 100.14-25.571 100.14-23.3704ZM31.4971 13.5969C31.4971 20.4613 35.6064 24.5537 42.4877 24.5537L126.942 24.5537C133.823 24.5537 137.933 20.4613 137.933 13.5969L137.933-46.9519L88.7381-88.2697C85.8385-90.7121 83.3668-90.6317 80.5476-88.2697L31.4971-47.0959ZM16.084-45.221C16.084-44.261 16.9045-43.3898 18.1097-43.3898C18.7525-43.3898 19.1456-43.6519 19.6574-44.0664L81.7961-96.2882C83.5952-97.8459 85.4195-98.1254 87.6336-96.2882L149.484-44.0664C150.005-43.6519 150.398-43.3898 151.041-43.3898C152.259-43.3898 153.049-44.185 153.049-45.1957C153.049-45.9993 152.766-46.5111 152.03-47.0779L90.2099-99.2182C86.7355-102.248 82.8466-102.248 79.2283-99.2182L17.112-47.0779C16.3759-46.5111 16.084-45.9656 16.084-45.221ZM128.336-64.7586L137.933-56.6727L137.933-85.3697C137.933-86.842 136.858-87.8363 135.394-87.8363L130.82-87.8363C129.419-87.8363 128.336-86.842 128.336-85.3697Z"/>
  </g>
  <g id="Ultralight-L" transform="matrix(1 0 0 1 476.631 1556)">
   <path d="M98.5113 21.7413L67.6529 21.7413L67.6529-22.7498C67.6529-24.7823 68.9796-26.118 70.9317-26.118L95.228-26.118C97.1756-26.118 98.5113-24.7823 98.5113-22.7498ZM30.5533 14.0106C30.5533 20.4613 34.404 24.321 40.8457 24.321L125.649 24.321C132.091 24.321 135.942 20.4613 135.942 14.0106L135.942-48.8912L87.3289-89.7436C84.3129-92.2636 81.9317-92.1832 78.9962-89.7436L30.5533-49.061ZM16.084-45.3761C16.084-44.7781 16.633-44.2561 17.3469-44.2561C17.7441-44.2561 17.9045-44.363 18.2482-44.6352L80.18-96.689C82.0566-98.3243 83.9198-98.6684 86.3149-96.689L147.907-44.6352C148.246-44.363 148.407-44.2561 148.804-44.2561C149.634-44.2561 150.076-44.8185 150.076-45.3896C150.076-45.9476 149.857-46.2913 149.263-46.7289L88.2705-98.2098C85.0677-101.033 81.5925-101.033 78.2198-98.2098L16.8922-46.7289C16.2983-46.2913 16.084-45.9656 16.084-45.3761ZM127.741-62.9486L135.942-56.0392L135.942-84.6327C135.942-85.8206 135.035-86.6468 133.843-86.6468L129.747-86.6468C128.644-86.6468 127.741-85.8206 127.741-84.6327Z"/>
  </g>
  <g id="Black-M" transform="matrix(1 0 0 1 2855.41 1126)">
   <path d="M91.7254-0.274551L64.2431-0.274551L64.2431-29.3032C64.2431-31.7368 65.8656-33.2912 68.2939-33.2912L87.7371-33.2912C90.171-33.2912 91.7254-31.7368 91.7254-29.3032ZM30.7778 3.71663C30.7778 11.742 36.5669 17.0634 45.3455 17.0634L110.576 17.0634C119.354 17.0634 125.143 11.742 125.143 3.71663L125.143-26.8252L81.3678-63.5944C79.2832-65.3787 76.7476-65.3735 74.6682-63.5944L30.7778-26.8247ZM12.4609-41.6125C12.4609-36.73 15.8724-33.4568 21.0487-33.4568C23.2397-33.4568 25.638-34.4467 27.6197-36.1266L74.3741-75.3153C76.7448-77.3278 79.3033-77.3212 81.7184-75.3153L128.36-36.1266C130.347-34.4467 132.745-33.4568 134.936-33.4568C140.074-33.4568 143.513-36.6806 143.513-41.596C143.513-44.083 142.214-46.7498 139.999-48.6059L89.2596-91.2317C82.536-96.8742 73.5614-96.8742 66.8384-91.2317L15.9803-48.5488C13.7656-46.6356 12.4609-44.061 12.4609-41.6125ZM105.26-72.6345L126.057-55.3312L126.057-83.4936C126.057-85.9245 124.496-87.4806 122.07-87.4806L109.315-87.4806C106.884-87.4806 105.26-85.9245 105.26-83.4936Z"/>
  </g>
  <g id="Heavy-M" transform="matrix(1 0 0 1 2560.42 1126)">
   <path d="M89.7323 0.745461L62.794 0.745461L62.794-29.0457C62.794-31.4461 64.3934-32.9691 66.7751-32.9691L85.8113-32.9691C88.2093-32.9691 89.7323-31.4461 89.7323-29.0457ZM30.0521 3.11123C30.0521 10.8392 35.4398 15.8451 43.7676 15.8451L108.757 15.8451C117.085 15.8451 122.472 10.8392 122.472 3.11123L122.472-29.3512L79.553-65.3816C77.5262-67.1273 75.0624-67.1086 73.0543-65.3816L30.0521-29.3558ZM12.4609-41.8049C12.4609-37.6003 15.4414-34.6522 20.022-34.6522C22.0162-34.6522 24.1125-35.5845 25.8587-37.0611L73.1113-76.6882C75.1874-78.4465 77.4436-78.4392 79.5442-76.6882L126.7-37.0611C128.463-35.5845 130.559-34.6522 132.554-34.6522C137.022-34.6522 140.082-37.4526 140.082-41.7557C140.082-44.0054 138.984-46.2751 137.04-47.9036L86.289-90.5472C80.2927-95.5828 72.3837-95.5828 66.3829-90.5472L15.5191-47.8599C13.5751-46.1879 12.4609-43.9398 12.4609-41.8049ZM104.375-70.6999L123.17-55.0308L123.17-81.8792C123.17-84.2403 121.642-85.7497 119.298-85.7497L108.322-85.7497C105.963-85.7497 104.375-84.2403 104.375-81.8792Z"/>
  </g>
  <g id="Bold-M" transform="matrix(1 0 0 1 2265.63 1126)">
   <path d="M87.5029 1.88649L61.1729 1.88649L61.1729-28.7577C61.1729-31.1208 62.7466-32.6088 65.076-32.6088L83.6569-32.6088C86.0149-32.6088 87.5029-31.1208 87.5029-28.7577ZM29.2404 2.43401C29.2404 9.82923 34.179 14.4822 42.0026 14.4822L106.722 14.4822C114.546 14.4822 119.485 9.82923 119.485 2.43401L119.485-32.1769L77.5228-67.3808C75.5608-69.0834 73.1773-69.0496 71.249-67.3808L29.2404-32.1872ZM12.4609-42.0201C12.4609-38.5739 14.9593-35.9895 18.8734-35.9895C20.6475-35.9895 22.4059-36.8572 23.8889-38.1064L71.6986-78.2239C73.4452-79.6979 75.3633-79.6898 77.112-78.2239L124.844-38.1064C126.356-36.8572 128.114-35.9895 129.888-35.9895C133.607-35.9895 136.243-38.3163 136.243-41.9342C136.243-43.9186 135.371-45.7441 133.73-47.1179L82.9658-89.7815C77.7834-94.1382 71.0662-94.1382 65.8734-89.7815L15.0032-47.0893C13.362-45.687 12.4609-43.8041 12.4609-42.0201ZM103.384-68.5359L119.941-54.6947L119.941-80.0731C119.941-82.3563 118.45-83.8134 116.196-83.8134L107.21-83.8134C104.932-83.8134 103.384-82.3563 103.384-80.0731Z"/>
  </g>
  <g id="Semibold-M" transform="matrix(1 0 0 1 1970.24 1126)">
   <path d="M85.9659 2.67311L60.0553 2.67311L60.0553-28.5591C60.0553-30.8966 61.6113-32.3604 63.9047-32.3604L82.1717-32.3604C84.5021-32.3604 85.9659-30.8966 85.9659-28.5591ZM28.6808 1.96714C28.6808 9.133 33.3098 13.5426 40.7857 13.5426L105.32 13.5426C112.796 13.5426 117.425 9.133 117.425 1.96714L117.425-34.125L76.1233-68.759C74.2058-70.4319 71.8777-70.3878 70.0044-68.759L28.6808-34.1392ZM12.4609-42.1685C12.4609-39.2451 14.6269-36.9113 18.0816-36.9113C19.704-36.9113 21.2294-37.7346 22.5309-38.8271L70.7247-79.2826C72.2441-80.5606 73.9292-80.552 75.4353-79.2826L123.564-38.8271C124.903-37.7346 126.428-36.9113 128.051-36.9113C131.253-36.9113 133.597-38.9117 133.597-42.0573C133.597-43.8587 132.88-45.3781 131.448-46.5763L80.6749-89.2536C76.0534-93.1423 70.1579-93.1423 65.5222-89.2536L14.6475-46.5581C13.2151-45.3418 12.4609-43.7106 12.4609-42.1685ZM102.701-67.0441L117.715-54.463L117.715-78.828C117.715-81.0575 116.25-82.4785 114.058-82.4785L106.444-82.4785C104.221-82.4785 102.701-81.0575 102.701-78.828Z"/>
  </g>
  <g id="Medium-M" transform="matrix(1 0 0 1 1674.53 1126)">
   <path d="M84.8004 3.26956L59.208 3.26956L59.208-28.4086C59.208-30.7267 60.7505-32.172 63.0165-32.172L81.0456-32.172C83.3551-32.172 84.8004-30.7267 84.8004-28.4086ZM28.2565 1.61314C28.2565 8.60509 32.6507 12.8302 39.8631 12.8302L104.256 12.8302C111.469 12.8302 115.863 8.60509 115.863 1.61314L115.863-35.602L75.062-69.8041C73.1784-71.4544 70.8923-71.4024 69.0607-69.8041L28.2565-35.6192ZM12.4609-42.281C12.4609-39.754 14.3749-37.6103 17.4813-37.6103C18.9885-37.6103 20.3374-38.3999 21.5012-39.3735L69.9863-80.0854C71.3335-81.2148 72.8417-81.2058 74.1639-80.0854L122.594-39.3735C123.801-38.3999 125.15-37.6103 126.657-37.6103C129.468-37.6103 131.591-39.3632 131.591-42.1507C131.591-43.8134 130.992-45.1005 129.717-46.1656L78.9378-88.8533C74.7417-92.3872 69.4692-92.3872 65.2558-88.8533L14.3779-46.1553C13.1037-45.08 12.4609-43.6397 12.4609-42.281ZM102.183-65.9129L116.027-54.2873L116.027-77.884C116.027-80.0726 114.582-81.4664 112.436-81.4664L105.862-81.4664C103.682-81.4664 102.183-80.0726 102.183-77.884Z"/>
  </g>
  <g id="Regular-M" transform="matrix(1 0 0 1 1379.13 1126)">
   <path d="M83.2803 4.04753L58.1027 4.04753L58.1027-28.2122C58.1027-30.5049 59.6277-31.9264 61.8581-31.9264L79.5767-31.9264C81.8589-31.9264 83.2803-30.5049 83.2803-28.2122ZM27.703 1.1514C27.703 7.9165 31.791 11.901 38.6596 11.901L102.869 11.901C109.738 11.901 113.826 7.9165 113.826 1.1514L113.826-37.5287L73.6779-71.1672C71.8384-72.7881 69.607-72.7258 67.8298-71.1672L27.703-37.5498ZM12.4609-42.4277C12.4609-40.4178 14.0462-38.5221 16.6982-38.5221C18.0553-38.5221 19.1738-39.2677 20.1581-40.0862L69.0231-81.1325C70.1456-82.068 71.4233-82.0585 72.5056-81.1325L121.328-40.0862C122.364-39.2677 123.483-38.5221 124.84-38.5221C127.14-38.5221 128.974-39.9521 128.974-42.2724C128.974-43.7542 128.528-44.7385 127.46-45.6299L76.672-88.3312C73.0307-91.4022 68.5709-91.4022 64.9085-88.3312L14.0261-45.6299C12.9584-44.7385 12.4609-43.5472 12.4609-42.4277ZM101.507-64.4374L113.826-54.0581L113.826-76.6526C113.826-78.7881 112.405-80.1462 110.322-80.1462L105.105-80.1462C102.98-80.1462 101.507-78.7881 101.507-76.6526Z"/>
  </g>
  <g id="Light-M" transform="matrix(1 0 0 1 1084.38 1126)">
   <path d="M81.1244 5.5533L56.3403 5.5533L56.3403-27.3909C56.3403-29.4612 57.7112-30.7628 59.7192-30.7628L77.7801-30.7628C79.8227-30.7628 81.1244-29.4612 81.1244-27.3909ZM26.4539 1.69895C26.4539 7.9165 30.1997 11.593 36.4865 11.593L101.158 11.593C107.445 11.593 111.191 7.9165 111.191 1.69895L111.191-40.0953L71.8128-73.1178C69.8193-74.8414 67.7076-74.7791 65.7765-73.1178L26.4539-40.1506ZM12.4609-42.633C12.4609-41.1023 13.6869-39.6685 15.6886-39.6685C16.7207-39.6685 17.5312-40.2088 18.293-40.8391L66.8842-81.6629C68.1094-82.7011 69.4385-82.7771 70.7603-81.6629L119.241-40.8391C120.037-40.2088 120.848-39.6685 121.88-39.6685C123.667-39.6685 125.038-40.7905 125.038-42.5291C125.038-43.6857 124.678-44.4476 123.799-45.1679L74.1054-86.9966C70.8234-89.7938 66.9111-89.7938 63.5738-86.9966L13.7352-45.1679C12.8557-44.4476 12.4609-43.5472 12.4609-42.633ZM100.72-62.0419L111.191-53.2197L111.191-75.6773C111.191-77.4363 109.993-78.572 108.268-78.572L103.684-78.572C101.953-78.572 100.72-77.4363 100.72-75.6773Z"/>
  </g>
  <g id="Thin-M" transform="matrix(1 0 0 1 790.275 1126)">
   <path d="M78.2729 7.54479L54.0093 7.54479L54.0093-26.3046C54.0093-28.0807 55.1766-29.224 56.8904-29.224L75.4039-29.224C77.1296-29.224 78.2729-28.0807 78.2729-26.3046ZM24.8019 2.42313C24.8019 7.9165 28.0951 11.1857 33.6125 11.1857L98.895 11.1857C104.412 11.1857 107.706 7.9165 107.706 2.42313L107.706-43.4899L69.346-75.6977C67.1489-77.5571 65.1956-77.4948 63.0608-75.6977L24.8019-43.5905ZM12.4609-42.9046C12.4609-42.0075 13.2116-41.1847 14.3534-41.1847C14.9555-41.1847 15.3586-41.4535 15.8263-41.8348L64.0554-82.3644C65.4164-83.5385 66.8133-83.7276 68.452-82.3644L116.48-41.8348C116.96-41.4535 117.363-41.1847 117.965-41.1847C119.073-41.1847 119.833-41.8994 119.833-42.8685C119.833-43.5952 119.586-44.0629 118.956-44.5568L70.7108-85.2314C67.9041-87.6665 64.716-87.6665 61.8086-85.2314L13.3505-44.5568C12.7199-44.0629 12.4609-43.5472 12.4609-42.9046ZM99.6793-58.8736L107.706-52.1108L107.706-74.3873C107.706-75.6485 106.802-76.49 105.553-76.49L101.806-76.49C100.595-76.49 99.6793-75.6485 99.6793-74.3873Z"/>
  </g>
  <g id="Ultralight-M" transform="matrix(1 0 0 1 494.897 1126)">
   <path d="M76.8124 8.56482L52.8154 8.56482L52.8154-25.7482C52.8154-27.3736 53.8784-28.4357 55.4415-28.4357L74.1868-28.4357C75.7503-28.4357 76.8124-27.3736 76.8124-25.7482ZM23.9557 2.79405C23.9557 7.9165 27.0171 10.977 32.1404 10.977L97.7358 10.977C102.859 10.977 105.92 7.9165 105.92 2.79405L105.92-45.2286L68.0826-77.0191C65.7811-78.948 63.909-78.8857 61.6698-77.0191L23.9557-45.3523ZM12.4609-43.0437C12.4609-42.4712 12.9682-41.9614 13.6696-41.9614C14.0514-41.9614 14.2459-42.091 14.5629-42.3449L62.6065-82.7238C64.037-83.9673 65.4687-84.2145 67.2697-82.7238L115.066-42.3449C115.383-42.091 115.578-41.9614 115.96-41.9614C116.72-41.9614 117.167-42.4674 117.167-43.0424C117.167-43.5489 116.978-43.8658 116.475-44.2439L68.9721-84.3273C66.4088-86.577 63.5916-86.577 60.9045-84.3273L13.1534-44.2439C12.6504-43.8658 12.4609-43.5472 12.4609-43.0437ZM99.1461-57.2508L105.92-51.5428L105.92-73.7266C105.92-74.7328 105.167-75.4236 104.162-75.4236L100.844-75.4236C99.8997-75.4236 99.1461-74.7328 99.1461-73.7266Z"/>
  </g>
  <g id="Black-S" transform="matrix(1 0 0 1 2871.88 696)">
   <path d="M72.3633-8.05664L50.6836-8.05664L50.6836-30.6152C50.6836-32.5195 51.9531-33.7402 53.8574-33.7402L69.2383-33.7402C71.1426-33.7402 72.3633-32.5195 72.3633-30.6152ZM24.2676-4.49219C24.2676 1.85547 28.9062 6.10352 35.8887 6.10352L87.1094 6.10352C94.0918 6.10352 98.7305 1.85547 98.7305-4.49219L98.7305-28.0273L64.209-57.0312C62.5488-58.4473 60.5469-58.4473 58.8867-57.0312L24.2676-28.0273ZM9.76562-40.1855C9.76562-36.1816 12.5488-33.5449 16.748-33.5449C18.5059-33.5449 20.459-34.3262 22.0703-35.6934L58.5449-66.2598C60.498-67.9199 62.5977-67.9199 64.5996-66.2598L100.977-35.6934C102.588-34.3262 104.541-33.5449 106.299-33.5449C110.498-33.5449 113.281-36.1816 113.281-40.1855C113.281-42.1875 112.207-44.3848 110.4-45.8984L70.7031-79.248C65.2344-83.8379 57.9102-83.8379 52.4414-79.248L12.6465-45.8496C10.8398-44.2871 9.76562-42.1875 9.76562-40.1855ZM82.7148-64.9902L99.5117-51.0254L99.5117-73.4863C99.5117-75.3906 98.291-76.6113 96.3867-76.6113L85.8887-76.6113C83.9844-76.6113 82.7148-75.3906 82.7148-73.4863Z"/>
  </g>
  <g id="Heavy-S" transform="matrix(1 0 0 1 2576.38 696)">
   <path d="M70.9342-7.3767L49.6694-7.3767L49.6694-30.5C49.6694-32.4043 50.939-33.6135 52.8317-33.6135L67.8208-33.6135C69.7251-33.6135 70.9342-32.4043 70.9342-30.5ZM23.8066-5.07994C23.8066 1.08333 28.1456 5.10089 34.8169 5.10089L85.7725 5.10089C92.4438 5.10089 96.7828 1.08333 96.7828-5.07994L96.7828-29.8597L62.8952-58.3105C61.3042-59.6804 59.3483-59.6689 57.7688-58.3105L23.8066-29.8597ZM9.76562-40.3238C9.76562-36.8385 12.2261-34.4208 15.999-34.4208C17.63-34.4208 19.3642-35.179 20.8026-36.3964L57.7382-67.3661C59.4263-68.7958 61.2608-68.7843 62.9631-67.3661L99.8241-36.3964C101.274-35.179 103.008-34.4208 104.639-34.4208C108.331-34.4208 110.85-36.7348 110.85-40.2893C110.85-42.1299 109.937-44.016 108.338-45.3568L68.4904-78.8332C63.5979-82.939 57.115-82.939 52.2224-78.8332L12.2892-45.3195C10.69-43.9414 9.76562-42.0838 9.76562-40.3238ZM82.0579-63.6419L97.3797-50.8756L97.3797-72.2302C97.3797-74.1229 96.159-75.3321 94.2777-75.3321L85.2203-75.3321C83.3275-75.3321 82.0579-74.1229 82.0579-72.2302Z"/>
  </g>
  <g id="Bold-S" transform="matrix(1 0 0 1 2281.03 696)">
   <path d="M69.3359-6.61621L48.5352-6.61621L48.5352-30.3711C48.5352-32.2754 49.8047-33.4717 51.6846-33.4717L66.2354-33.4717C68.1396-33.4717 69.3359-32.2754 69.3359-30.3711ZM23.291-5.7373C23.291 0.219727 27.2949 3.97949 33.6182 3.97949L84.2773 3.97949C90.6006 3.97949 94.6045 0.219727 94.6045-5.7373L94.6045-31.9092L61.4258-59.7412C59.9121-61.0596 58.0078-61.0352 56.5186-59.7412L23.291-31.9092ZM9.76562-40.4785C9.76562-37.5732 11.8652-35.4004 15.1611-35.4004C16.6504-35.4004 18.1396-36.1328 19.3848-37.1826L56.8359-68.6035C58.2275-69.7754 59.7656-69.751 61.1328-68.6035L98.5352-37.1826C99.8047-36.1328 101.294-35.4004 102.783-35.4004C105.908-35.4004 108.13-37.3535 108.13-40.4053C108.13-42.0654 107.397-43.6035 106.03-44.751L66.0156-78.3691C61.7676-81.9336 56.2256-81.9336 51.9775-78.3691L11.8896-44.7266C10.5225-43.5547 9.76562-41.9678 9.76562-40.4785ZM81.3232-62.1338L94.9951-50.708L94.9951-70.8252C94.9951-72.7051 93.7744-73.9014 91.9189-73.9014L84.4727-73.9014C82.5928-73.9014 81.3232-72.7051 81.3232-70.8252Z"/>
  </g>
  <g id="Semibold-S" transform="matrix(1 0 0 1 1985.26 696)">
   <path d="M68.234-6.09189L47.7531-6.09189L47.7531-30.2822C47.7531-32.1865 49.0227-33.3739 50.8937-33.3739L65.1423-33.3739C67.0466-33.3739 68.234-32.1865 68.234-30.2822ZM22.9355-6.19053C22.9355-0.375684 26.7084 3.20635 32.7917 3.20635L83.2465 3.20635C89.3298 3.20635 93.1026-0.375684 93.1026-6.19053L93.1026-33.3222L60.4127-60.7276C58.9523-62.0104 57.0836-61.9771 55.6565-60.7276L22.9355-33.3222ZM9.76562-40.5852C9.76562-38.0798 11.6164-36.0758 14.5835-36.0758C15.975-36.0758 17.2954-36.7904 18.4072-37.7247L56.2139-69.4566C57.4011-70.4508 58.7348-70.4175 59.8709-69.4566L97.6465-37.7247C98.7916-36.7904 100.112-36.0758 101.504-36.0758C104.237-36.0758 106.255-37.7801 106.255-40.4853C106.255-42.021 105.647-43.3191 104.44-44.3333L64.3094-78.0492C60.5057-81.2404 55.6124-81.2404 51.8087-78.0492L11.6142-44.3178C10.4069-43.2881 9.76562-41.8878 9.76562-40.5852ZM80.8167-61.094L93.3511-50.5925L93.3511-69.8565C93.3511-71.7275 92.1304-72.9149 90.2927-72.9149L83.9572-72.9149C82.0862-72.9149 80.8167-71.7275 80.8167-69.8565Z"/>
  </g>
  <g id="Medium-S" transform="matrix(1 0 0 1 1689.26 696)">
   <path d="M67.3984-5.69434L47.1602-5.69434L47.1602-30.2148C47.1602-32.1191 48.4297-33.2998 50.2939-33.2998L64.3135-33.2998C66.2178-33.2998 67.3984-32.1191 67.3984-30.2148ZM22.666-6.53418C22.666-0.827148 26.2637 2.62012 32.165 2.62012L82.4648 2.62012C88.3662 2.62012 91.9639-0.827148 91.9639-6.53418L91.9639-34.3936L59.6445-61.4756C58.2246-62.7314 56.3828-62.6914 55.0029-61.4756L22.666-34.3936ZM9.76562-40.666C9.76562-38.4639 11.4277-36.5879 14.1455-36.5879C15.4629-36.5879 16.6553-37.2891 17.666-38.1357L55.7422-70.1035C56.7744-70.9629 57.9531-70.9229 58.9141-70.1035L96.9727-38.1357C98.0234-37.2891 99.2158-36.5879 100.533-36.5879C102.971-36.5879 104.833-38.1035 104.833-40.5459C104.833-41.9873 104.319-43.1035 103.233-44.0166L63.0156-77.8066C59.5488-80.7148 55.1475-80.7148 51.6807-77.8066L11.4053-44.0078C10.3193-43.0859 9.76562-41.8271 9.76562-40.666ZM80.4326-60.3057L92.1045-50.5049L92.1045-69.1221C92.1045-70.9863 90.8838-72.167 89.0596-72.167L83.5664-72.167C81.7021-72.167 80.4326-70.9863 80.4326-69.1221Z"/>
  </g>
  <g id="Regular-S" transform="matrix(1 0 0 1 1393.47 696)">
   <path d="M66.3086-5.17578L46.3867-5.17578L46.3867-30.127C46.3867-32.0312 47.6562-33.2031 49.5117-33.2031L63.2324-33.2031C65.1367-33.2031 66.3086-32.0312 66.3086-30.127ZM22.3145-6.98242C22.3145-1.41602 25.6836 1.85547 31.3477 1.85547L81.4453 1.85547C87.1094 1.85547 90.4785-1.41602 90.4785-6.98242L90.4785-35.791L58.6426-62.4512C57.2754-63.6719 55.4688-63.623 54.1504-62.4512L22.3145-35.791ZM9.76562-40.7715C9.76562-38.9648 11.1816-37.2559 13.5742-37.2559C14.7949-37.2559 15.8203-37.9395 16.6992-38.6719L55.127-70.9473C55.957-71.6309 56.9336-71.582 57.666-70.9473L96.0938-38.6719C97.0215-37.9395 98.0469-37.2559 99.2676-37.2559C101.318-37.2559 102.979-38.5254 102.979-40.625C102.979-41.9434 102.588-42.8223 101.66-43.6035L61.3281-77.4902C58.3008-80.0293 54.541-80.0293 51.5137-77.4902L11.1328-43.6035C10.2051-42.8223 9.76562-41.748 9.76562-40.7715ZM79.9316-59.2773L90.4785-50.3906L90.4785-68.1641C90.4785-70.0195 89.2578-71.1914 87.4512-71.1914L83.0566-71.1914C81.2012-71.1914 79.9316-70.0195 79.9316-68.1641Z"/>
  </g>
  <g id="Light-S" transform="matrix(1 0 0 1 1098.5 696)">
   <path d="M64.4014-3.84376L44.8276-3.84376L44.8276-29.4004C44.8276-31.1079 45.961-32.1738 47.6196-32.1738L61.6431-32.1738C63.3355-32.1738 64.4014-31.1079 64.4014-29.4004ZM21.2095-6.49805C21.2095-1.41602 24.2759 1.58301 29.4253 1.58301L79.9317 1.58301C85.0811 1.58301 88.1475-1.41602 88.1475-6.49805L88.1475-38.0615L56.9927-64.1767C55.4893-65.4883 53.7886-65.4394 52.334-64.1767L21.2095-38.0918ZM9.76562-40.9531C9.76562-39.5703 10.8638-38.27 12.6812-38.27C13.6143-38.27 14.3672-38.772 15.0493-39.3379L53.2349-71.4165C54.1558-72.1909 55.1777-72.2178 56.1221-71.4165L94.2471-39.3379C94.9629-38.772 95.7158-38.27 96.6489-38.27C98.2456-38.27 99.4971-39.2671 99.4971-40.852C99.4971-41.8828 99.1822-42.5649 98.4209-43.1948L59.0576-76.3096C56.3482-78.6065 53.0728-78.6065 50.333-76.3096L10.8755-43.1948C10.1143-42.5649 9.76562-41.748 9.76562-40.9531ZM79.2354-57.1582L88.1475-49.6489L88.1475-67.3013C88.1475-68.8237 87.1236-69.7988 85.6348-69.7988L81.8003-69.7988C80.293-69.7988 79.2354-68.8237 79.2354-67.3013Z"/>
  </g>
  <g id="Thin-S" transform="matrix(1 0 0 1 804.093 696)">
   <path d="M61.8789-2.08206L42.7657-2.08206L42.7657-28.4395C42.7657-29.8867 43.7188-30.8125 45.1172-30.8125L59.541-30.8125C60.9532-30.8125 61.8789-29.8867 61.8789-28.4395ZM19.7481-5.85743C19.7481-1.41602 22.4141 1.22266 26.8828 1.22266L77.9297 1.22266C82.3985 1.22266 85.0645-1.41602 85.0645-5.85743L85.0645-41.0644L54.8106-66.459C53.127-67.8906 51.5664-67.8418 49.9317-66.459L19.7481-41.1347ZM9.76562-41.1934C9.76562-40.3711 10.4434-39.6113 11.5-39.6113C12.0528-39.6113 12.4453-39.873 12.8672-40.2187L50.7325-72.0371C51.7735-72.9316 52.8555-73.0586 54.0801-72.0371L91.8047-40.2187C92.2403-39.873 92.6329-39.6113 93.1856-39.6113C94.1817-39.6113 94.8926-40.248 94.8926-41.1523C94.8926-41.8027 94.6778-42.2246 94.1368-42.6543L56.0547-74.7481C53.7657-76.7246 51.1309-76.7246 48.7715-74.7481L10.5352-42.6543C9.99414-42.2246 9.76562-41.748 9.76562-41.1934ZM78.3145-54.3555L85.0645-48.668L85.0645-66.1602C85.0645-67.2422 84.3008-67.9571 83.2325-67.9571L80.1387-67.9571C79.0918-67.9571 78.3145-67.2422 78.3145-66.1602Z"/>
  </g>
  <g id="Ultralight-S" transform="matrix(1 0 0 1 508.561 696)">
   <path d="M60.587-1.17972L41.7095-1.17972L41.7095-27.9473C41.7095-29.2613 42.5704-30.1153 43.8355-30.1153L58.4644-30.1153C59.733-30.1153 60.587-29.2613 60.587-27.9473ZM18.9995-5.52931C18.9995-1.41602 21.4605 1.03809 25.5806 1.03809L76.9043 1.03809C81.0245 1.03809 83.4854-1.41602 83.4854-5.52931L83.4854-42.6025L53.6929-67.6279C51.917-69.1211 50.4283-69.0722 48.7012-67.6279L18.9995-42.6933ZM9.76562-41.3164C9.76562-40.7812 10.228-40.2983 10.895-40.2983C11.253-40.2983 11.461-40.437 11.7496-40.6699L49.4507-72.355C50.5533-73.311 51.6661-73.4892 53.0342-72.355L90.5538-40.6699C90.8458-40.437 91.0538-40.2983 91.4117-40.2983C92.1002-40.2983 92.5343-40.7505 92.5343-41.3061C92.5343-41.7617 92.3707-42.0503 91.9425-42.3775L54.5167-73.9483C52.4429-75.7608 50.1363-75.7608 47.9717-73.9483L10.3608-42.3775C9.93262-42.0503 9.76562-41.748 9.76562-41.3164ZM77.8428-52.92L83.4854-48.1655L83.4854-65.5757C83.4854-66.4322 82.855-67.0137 82.002-67.0137L79.2876-67.0137C78.4766-67.0137 77.8428-66.4322 77.8428-65.5757Z"/>
  </g>
 </g>
</svg>
